<svg enable-background="new 0 0 24 24" height="512" viewBox="0 0 24 24" width="512" xmlns="http://www.w3.org/2000/svg"><path d="m21.25 0h-18.5c-1.517 0-2.75 1.233-2.75 2.75v18.5c0 1.517 1.233 2.75 2.75 2.75h18.5c1.517 0 2.75-1.233 2.75-2.75v-18.5c0-1.517-1.233-2.75-2.75-2.75zm-1.25 13h-10v2c0 .404-.243.77-.617.924-.124.052-.254.076-.383.076-.26 0-.516-.102-.707-.293l-2.293-2.293v1.836c0 .553-.447 1-1 1s-1-.447-1-1v-6.5c0-.553.447-1 1-1s1 .447 1 1v1.836l2.293-2.293c.286-.286.715-.373 1.09-.217.374.154.617.52.617.924v2h10c.553 0 1 .447 1 1s-.447 1-1 1z"/></svg>