<svg enable-background="new 0 0 24 24" height="512" stroke="white" viewBox="0 0 24 24" width="512" xmlns="http://www.w3.org/2000/svg"><path d="m21.25 0h-18.5c-1.517 0-2.75 1.233-2.75 2.75v18.5c0 1.517 1.233 2.75 2.75 2.75h18.5c1.517 0 2.75-1.233 2.75-2.75v-18.5c0-1.517-1.233-2.75-2.75-2.75zm-2.25 14.25c0 .553-.448 1-1 1h-7v3c0 .404-.244.77-.617.924-.124.052-.254.076-.383.076-.26 0-.516-.102-.707-.293l-4-4c-.391-.391-.391-1.023 0-1.414l4-4c.286-.287.715-.374 1.09-.217.373.154.617.52.617.924v3h6v-7.5c0-.553.448-1 1-1s1 .447 1 1z"/></svg>